<svg width="61" height="60" viewBox="0 0 61 60" fill="none" xmlns="http://www.w3.org/2000/svg">
<g id="Component 52">
<circle id="Circle" cx="30.5" cy="30" r="30" fill="black" fill-opacity="0.5"/>
<path id="Vector" d="M33.3125 17.8125C33.3125 16.2598 32.0527 15 30.5 15C28.9473 15 27.6875 16.2598 27.6875 17.8125C27.6875 19.3652 28.9473 20.625 30.5 20.625C32.0527 20.625 33.3125 19.3652 33.3125 17.8125ZM33.3125 42.1875C33.3125 40.6348 32.0527 39.375 30.5 39.375C28.9473 39.375 27.6875 40.6348 27.6875 42.1875C27.6875 43.7402 28.9473 45 30.5 45C32.0527 45 33.3125 43.7402 33.3125 42.1875ZM18.3125 32.8125C19.8652 32.8125 21.125 31.5527 21.125 30C21.125 28.4473 19.8652 27.1875 18.3125 27.1875C16.7598 27.1875 15.5 28.4473 15.5 30C15.5 31.5527 16.7598 32.8125 18.3125 32.8125ZM45.5 30C45.5 28.4473 44.2402 27.1875 42.6875 27.1875C41.1348 27.1875 39.875 28.4473 39.875 30C39.875 31.5527 41.1348 32.8125 42.6875 32.8125C44.2402 32.8125 45.5 31.5527 45.5 30ZM23.873 40.6055C24.9688 39.5098 24.9688 37.7285 23.873 36.627C22.7773 35.5254 20.9961 35.5312 19.8945 36.627C18.793 37.7227 18.7988 39.5039 19.8945 40.6055C20.9902 41.707 22.7715 41.7012 23.873 40.6055ZM23.873 23.3672C24.9688 22.2715 24.9688 20.4902 23.873 19.3887C22.7773 18.2871 20.9902 18.293 19.8945 19.3945C18.7988 20.4961 18.7988 22.2715 19.8945 23.373C20.9902 24.4746 22.7715 24.4688 23.873 23.373V23.3672ZM37.127 40.6055C38.2227 41.7012 40.0039 41.7012 41.1055 40.6055C42.207 39.5098 42.2012 37.7285 41.1055 36.627C40.0098 35.5254 38.2285 35.5312 37.127 36.627C36.0254 37.7227 36.0312 39.5039 37.127 40.6055Z" fill="white"/>
</g>
</svg>
