<svg width="20" height="22" viewBox="0 0 20 22" fill="none" xmlns="http://www.w3.org/2000/svg">
<path fill-rule="evenodd" clip-rule="evenodd" d="M9.64645 0.896447C9.84171 0.701184 10.1583 0.701184 10.3536 0.896447L16.8536 7.39645C17.0488 7.59171 17.0488 7.90829 16.8536 8.10355C16.6583 8.29882 16.3417 8.29882 16.1464 8.10355L10.5 2.45711L10.5 16.25C10.5 16.5261 10.2761 16.75 10 16.75C9.72386 16.75 9.5 16.5261 9.5 16.25L9.5 2.45711L3.85355 8.10355C3.65829 8.29882 3.34171 8.29882 3.14645 8.10355C2.95118 7.90829 2.95118 7.59171 3.14645 7.39645L9.64645 0.896447ZM1 14.75C1 14.4739 0.776142 14.25 0.5 14.25C0.223858 14.25 0 14.4739 0 14.75V20.75C0 21.0261 0.223858 21.25 0.5 21.25H19.5C19.7761 21.25 20 21.0261 20 20.75V14.75C20 14.4739 19.7761 14.25 19.5 14.25C19.2239 14.25 19 14.4739 19 14.75V20.25H1V14.75Z" fill="#1A1A1A"/>
</svg>
