<svg width="36" height="36" viewBox="0 0 36 36" fill="none" xmlns="http://www.w3.org/2000/svg">
<path d="M26.5977 18.3872C28.4674 16.5174 28.4674 13.4894 26.5977 11.6196C24.943 9.96492 22.3352 9.74981 20.4324 11.1099L20.3794 11.1464C19.9029 11.4872 19.7937 12.1491 20.1345 12.6223C20.4754 13.0956 21.1373 13.2081 21.6105 12.8672L21.6634 12.8308C22.7257 12.073 24.1785 12.1921 25.0985 13.1154C26.141 14.1579 26.141 15.8456 25.0985 16.8881L21.3855 20.6078C20.343 21.6502 18.6552 21.6502 17.6128 20.6078C16.6895 19.6845 16.5704 18.2317 17.3282 17.1727L17.3646 17.1197C17.7055 16.6432 17.593 15.9813 17.1197 15.6437C16.6465 15.3062 15.9813 15.4154 15.6438 15.8886L15.6073 15.9416C14.2439 17.8411 14.459 20.4489 16.1137 22.1036C17.9835 23.9734 21.0115 23.9734 22.8813 22.1036L26.5977 18.3872ZM9.40233 17.6128C7.53256 19.4826 7.53256 22.5106 9.40233 24.3804C11.057 26.0351 13.6648 26.2502 15.5676 24.89L15.6206 24.8536C16.0971 24.5128 16.2063 23.8509 15.8655 23.3777C15.5246 22.9044 14.8627 22.7919 14.3895 23.1328L14.3366 23.1692C13.2743 23.927 11.8215 23.8079 10.9015 22.8846C9.85902 21.8388 9.85902 20.1511 10.9015 19.1086L14.6145 15.3922C15.657 14.3498 17.3448 14.3498 18.3872 15.3922C19.3105 16.3155 19.4296 17.7683 18.6718 18.8306L18.6354 18.8836C18.2945 19.3601 18.407 20.022 18.8803 20.3596C19.3535 20.6971 20.0187 20.5879 20.3563 20.1147L20.3927 20.0617C21.7561 18.1588 21.541 15.5511 19.8863 13.8964C18.0165 12.0266 14.9885 12.0266 13.1187 13.8964L9.40233 17.6128Z" fill="white"/>
</svg>
