<svg width="36" height="36" viewBox="0 0 36 36" fill="none" xmlns="http://www.w3.org/2000/svg">
<path fill-rule="evenodd" clip-rule="evenodd" d="M17.4697 7.71967C17.7626 7.42678 18.2374 7.42678 18.5303 7.71967L25.0303 14.2197C25.3232 14.5126 25.3232 14.9874 25.0303 15.2803C24.7374 15.5732 24.2626 15.5732 23.9697 15.2803L19 10.3107L19 23C19 23.4142 18.6642 23.75 18.25 23.75C17.8358 23.75 17.5 23.4142 17.5 23L17.5 9.81066L12.0303 15.2803C11.7374 15.5732 11.2626 15.5732 10.9697 15.2803C10.6768 14.9874 10.6768 14.5126 10.9697 14.2197L17.4697 7.71967ZM9.25 21.75C9.25 21.3358 8.91421 21 8.5 21C8.08579 21 7.75 21.3358 7.75 21.75V27.75C7.75 28.1642 8.08579 28.5 8.5 28.5H27.5C27.9142 28.5 28.25 28.1642 28.25 27.75V21.75C28.25 21.3358 27.9142 21 27.5 21C27.0858 21 26.75 21.3358 26.75 21.75V27H9.25V21.75Z" fill="#FAFAFA"/>
</svg>
