<svg width="20" height="18" viewBox="0 0 20 18" fill="none" xmlns="http://www.w3.org/2000/svg">
<path d="M10.7847 2.43979L10.3181 2.90556L9.95051 3.27255L9.59779 2.89124L9.17089 2.42972C8.01246 1.27463 6.33134 0.748427 4.74776 1.01732L4.74626 1.01757C2.29681 1.42581 0.5 3.54606 0.5 6.03219V6.25875C0.5 7.74143 1.11565 9.15965 2.19991 10.1703L2.20018 10.1706L9.25913 16.7604C9.25914 16.7604 9.25916 16.7604 9.25917 16.7604C9.4593 16.9472 9.72398 17.0517 10 17.0517C10.276 17.0517 10.5407 16.9472 10.7409 16.7604L17.7994 10.1706L17.7999 10.1701C18.8854 9.15966 19.5 7.74164 19.5 6.25875V6.03219C19.5 3.54602 17.704 1.42586 15.2538 1.01759L10.7847 2.43979ZM10.7847 2.43979C11.9816 1.27447 13.6339 0.747984 15.2538 1.01757L10.7847 2.43979Z" stroke="#1A1A1A"/>
</svg>
