<svg width="24" height="24" viewBox="0 0 24 24" fill="none" xmlns="http://www.w3.org/2000/svg">
<g id="Group 1893">
<rect id="Rectangle 1078" x="1" y="4" width="22" height="15" fill="#1E37A6"/>
<g id="paths">
<g id="Group 1723">
<path id="Union" fill-rule="evenodd" clip-rule="evenodd" d="M21.1468 3C21.9032 3.00084 22.6285 3.29859 23.1634 3.82792C23.6983 4.35725 23.9991 5.07493 24 5.82352V19.3765C23.9991 20.1251 23.6983 20.8428 23.1634 21.3721C22.6285 21.9014 21.9032 22.1992 21.1468 22.2H2.85324C2.09678 22.1992 1.37154 21.9014 0.836633 21.3721C0.301731 20.8428 0.00084963 20.1251 0 19.3765V5.82352C0.00084963 5.07493 0.301731 4.35725 0.836633 3.82792C1.37154 3.29859 2.09678 3.00084 2.85324 3H21.1468ZM2.85324 21.0706H21.1468C21.6006 21.0701 22.0358 20.8915 22.3567 20.5739C22.6777 20.2563 22.8582 19.8256 22.8587 19.3765H13.136C13.1323 19.3765 13.1287 19.3765 13.125 19.3765H10.875C10.8713 19.3765 10.8677 19.3765 10.864 19.3765H1.14129C1.1418 19.8256 1.32233 20.2563 1.64327 20.5739C1.96421 20.8915 2.39936 21.0701 2.85324 21.0706ZM10.864 18.2471H1.14129C1.14129 18.2471 1.12048 12.5587 1.14129 12.5005C1.16209 12.4423 1.1733 12.3806 1.17391 12.3177V5.82352C1.17442 5.37436 1.35495 4.94375 1.67589 4.62615C1.99684 4.30855 2.43198 4.1299 2.88587 4.1294H21.1141C21.568 4.1299 22.0032 4.30855 22.3241 4.62615C22.6451 4.94375 22.8256 5.37436 22.8261 5.82352V12.3177C22.8267 12.3806 22.8379 12.4423 22.8587 12.5005V18.2471H13.136C13.1323 18.2471 13.1287 18.2471 13.125 18.2471H10.875C10.8713 18.2471 10.8677 18.2471 10.864 18.2471Z" fill="#1E37A6"/>
<path id="Vector" d="M9.90078 7.22289C9.73595 7.12857 9.54898 7.07891 9.35866 7.07892C9.16833 7.07892 8.98136 7.12859 8.81654 7.22292C8.65171 7.31725 8.51484 7.45292 8.41968 7.61631C8.32452 7.77969 8.27442 7.96502 8.27442 8.15368V14.816C8.27369 15.0049 8.32334 15.1907 8.41833 15.3545C8.51332 15.5183 8.65028 15.6543 8.81535 15.7488C8.98042 15.8433 9.16774 15.8928 9.35835 15.8925C9.54895 15.8921 9.73608 15.8418 9.90078 15.7467L15.7214 12.4156C15.8862 12.3212 16.0231 12.1856 16.1182 12.0222C16.2134 11.8588 16.2634 11.6735 16.2634 11.4849C16.2634 11.2963 16.2134 11.1109 16.1182 10.9476C16.0231 10.7842 15.8862 10.6485 15.7214 10.5542L9.90078 7.22289Z" fill="white"/>
</g>
</g>
</g>
</svg>
