<svg width="24" height="20" viewBox="0 0 24 20" fill="none" xmlns="http://www.w3.org/2000/svg">
<g id="paths">
<g id="Group 1723">
<path id="Union" fill-rule="evenodd" clip-rule="evenodd" d="M21.1468 0C21.9032 0.000840805 22.6285 0.298587 23.1634 0.827917C23.6983 1.35725 23.9991 2.07493 24 2.82352V16.3765C23.9991 17.1251 23.6983 17.8428 23.1634 18.3721C22.6285 18.9014 21.9032 19.1992 21.1468 19.2H2.85324C2.09678 19.1992 1.37154 18.9014 0.836633 18.3721C0.301731 17.8428 0.00084963 17.1251 0 16.3765V2.82352C0.00084963 2.07493 0.301731 1.35725 0.836633 0.827917C1.37154 0.298587 2.09678 0.000840805 2.85324 0H21.1468ZM2.85324 18.0706H21.1468C21.6006 18.0701 22.0358 17.8915 22.3567 17.5739C22.6777 17.2563 22.8582 16.8256 22.8587 16.3765H13.136C13.1323 16.3765 13.1287 16.3765 13.125 16.3765H10.875C10.8713 16.3765 10.8677 16.3765 10.864 16.3765H1.14129C1.1418 16.8256 1.32233 17.2563 1.64327 17.5739C1.96421 17.8915 2.39936 18.0701 2.85324 18.0706ZM10.864 15.2471H1.14129C1.14129 15.2471 1.12048 9.55869 1.14129 9.50048C1.16209 9.44227 1.1733 9.38056 1.17391 9.31766V2.82352C1.17442 2.37436 1.35495 1.94375 1.67589 1.62615C1.99684 1.30855 2.43198 1.1299 2.88587 1.1294H21.1141C21.568 1.1299 22.0032 1.30855 22.3241 1.62615C22.6451 1.94375 22.8256 2.37436 22.8261 2.82352V9.31766C22.8267 9.38056 22.8379 9.44227 22.8587 9.50048V15.2471H13.136C13.1323 15.2471 13.1287 15.2471 13.125 15.2471H10.875C10.8713 15.2471 10.8677 15.2471 10.864 15.2471Z" fill="#919699"/>
<path id="Vector" d="M9.90078 4.22289C9.73595 4.12857 9.54898 4.07891 9.35866 4.07892C9.16833 4.07892 8.98136 4.12859 8.81654 4.22292C8.65171 4.31725 8.51484 4.45292 8.41968 4.61631C8.32452 4.77969 8.27442 4.96502 8.27442 5.15368V11.816C8.27369 12.0049 8.32334 12.1907 8.41833 12.3545C8.51332 12.5183 8.65028 12.6543 8.81535 12.7488C8.98042 12.8433 9.16774 12.8928 9.35835 12.8925C9.54895 12.8921 9.73608 12.8418 9.90078 12.7467L15.7214 9.41557C15.8862 9.32124 16.0231 9.18557 16.1182 9.0222C16.2134 8.85883 16.2634 8.67352 16.2634 8.48489C16.2634 8.29625 16.2134 8.11094 16.1182 7.94757C16.0231 7.7842 15.8862 7.64854 15.7214 7.5542L9.90078 4.22289ZM9.41571 11.7179V5.25168L15.0652 8.48483L9.41571 11.7179Z" fill="#919699"/>
</g>
</g>
</svg>
