<svg width="40" height="40" viewBox="0 0 40 40" fill="none" xmlns="http://www.w3.org/2000/svg">
<g id="video-camera-with-play-button 1">
<g id="icon">
<rect id="Rectangle 1078" x="5.33325" y="9.33334" width="29.3333" height="20" fill="#1E37A6"/>
<g id="paths">
<g id="Group 1723">
<path id="Union" fill-rule="evenodd" clip-rule="evenodd" d="M32.1957 8C33.2043 8.00112 34.1713 8.39812 34.8845 9.10389C35.5977 9.80966 35.9989 10.7666 36 11.7647V29.8353C35.9989 30.8334 35.5977 31.7903 34.8845 32.4961C34.1713 33.2019 33.2043 33.5989 32.1957 33.6H7.80432C6.7957 33.5989 5.82871 33.2019 5.11551 32.4961C4.40231 31.7903 4.00113 30.8334 4 29.8353V11.7647C4.00113 10.7666 4.40231 9.80966 5.11551 9.10389C5.82871 8.39812 6.7957 8.00112 7.80432 8H32.1957ZM7.80432 32.0941H32.1957C32.8009 32.0935 33.3811 31.8553 33.809 31.4318C34.2369 31.0083 34.4776 30.4342 34.4783 29.8353H21.5147C21.5098 29.8354 21.5049 29.8354 21.5 29.8353H18.5C18.4951 29.8354 18.4902 29.8354 18.4853 29.8353H5.52171C5.52239 30.4342 5.7631 31.0083 6.19103 31.4318C6.61895 31.8553 7.19915 32.0935 7.80432 32.0941ZM18.4853 28.3294H5.52171C5.52171 28.3294 5.49398 20.7449 5.52171 20.6673C5.54945 20.5897 5.56439 20.5074 5.56521 20.4236V11.7647C5.56589 11.1658 5.8066 10.5917 6.23453 10.1682C6.66245 9.74473 7.24265 9.50653 7.84782 9.50586H32.1522C32.7574 9.50653 33.3376 9.74473 33.7655 10.1682C34.1934 10.5917 34.4341 11.1658 34.4348 11.7647V20.4236C34.4356 20.5074 34.4506 20.5897 34.4783 20.6673V28.3294H21.5147C21.5098 28.3294 21.5049 28.3294 21.5 28.3294H18.5C18.4951 28.3294 18.4902 28.3294 18.4853 28.3294Z" fill="#1E37A6"/>
<path id="Vector" d="M17.201 13.6305C16.9812 13.5048 16.7319 13.4386 16.4781 13.4386C16.2244 13.4386 15.9751 13.5048 15.7553 13.6306C15.5355 13.7563 15.353 13.9372 15.2262 14.1551C15.0993 14.3729 15.0325 14.62 15.0325 14.8716V23.7547C15.0315 24.0066 15.0977 24.2543 15.2244 24.4727C15.351 24.6911 15.5336 24.8724 15.7537 24.9984C15.9738 25.1244 16.2236 25.1904 16.4777 25.1899C16.7319 25.1895 16.9814 25.1224 17.201 24.9956L24.9618 20.5541C25.1816 20.4283 25.364 20.2474 25.4909 20.0296C25.6177 19.8118 25.6845 19.5647 25.6845 19.3132C25.6845 19.0617 25.6177 18.8146 25.4909 18.5968C25.364 18.3789 25.1816 18.1981 24.9618 18.0723L17.201 13.6305Z" fill="white"/>
</g>
</g>
</g>
</g>
</svg>
