<svg width="32" height="32" viewBox="0 0 32 32" fill="none" xmlns="http://www.w3.org/2000/svg">
<g id="Group 1906">
<circle id="Ellipse 12" cx="16" cy="16" r="16" fill="#1E37A6"/>
<path id="Vector" d="M15.7367 6.15105L14.8528 7.00178C14.6436 7.20314 14.6436 7.52961 14.8528 7.73101L21.7782 14.3967H6.53571C6.23987 14.3967 6 14.6276 6 14.9123V16.1155C6 16.4002 6.23987 16.6311 6.53571 16.6311H21.7782L14.8528 23.2968C14.6436 23.4982 14.6436 23.8247 14.8528 24.026L15.7367 24.8768C15.9458 25.0781 16.285 25.0781 16.4943 24.8768L25.8431 15.8785C26.0523 15.6772 26.0523 15.3507 25.8431 15.1493L16.4942 6.15105C16.285 5.94965 15.9458 5.94965 15.7367 6.15105Z" fill="#FAFAFA"/>
</g>
</svg>
